<mxfile host="app.diagrams.net" modified="2023-10-05T08:09:51.214Z" agent="Mozilla/5.0 (Windows NT 10.0; Win64; x64) AppleWebKit/537.36 (KHTML, like Gecko) Chrome/114.0.0.0 Safari/537.36" etag="G_lph0AwySvTLgTm2RNs" version="21.5.2" type="github">
  <diagram name="第 1 页" id="wUjRHstoBrihornpt0V6">
    <mxGraphModel dx="1221" dy="822" grid="1" gridSize="10" guides="1" tooltips="1" connect="1" arrows="1" fold="1" page="1" pageScale="1" pageWidth="827" pageHeight="1169" math="0" shadow="0">
      <root>
        <mxCell id="0" />
        <mxCell id="1" parent="0" />
        <mxCell id="kDgOQdKx38EdroFYzAoS-2" value="" style="html=1;verticalLabelPosition=bottom;align=center;labelBackgroundColor=#ffffff;verticalAlign=top;strokeWidth=2;strokeColor=#0080F0;shadow=0;dashed=0;shape=mxgraph.ios7.icons.home;" vertex="1" parent="1">
          <mxGeometry x="129" y="280" width="121" height="120" as="geometry" />
        </mxCell>
        <mxCell id="kDgOQdKx38EdroFYzAoS-4" value="" style="html=1;verticalLabelPosition=bottom;align=center;labelBackgroundColor=#ffffff;verticalAlign=top;strokeWidth=2;strokeColor=#0080F0;shadow=0;dashed=0;shape=mxgraph.ios7.icons.home;" vertex="1" parent="1">
          <mxGeometry x="379" y="280" width="121" height="120" as="geometry" />
        </mxCell>
        <mxCell id="kDgOQdKx38EdroFYzAoS-5" value="" style="html=1;verticalLabelPosition=bottom;align=center;labelBackgroundColor=#ffffff;verticalAlign=top;strokeWidth=2;strokeColor=#0080F0;shadow=0;dashed=0;shape=mxgraph.ios7.icons.home;" vertex="1" parent="1">
          <mxGeometry x="600" y="280" width="130" height="120" as="geometry" />
        </mxCell>
        <mxCell id="kDgOQdKx38EdroFYzAoS-6" value="" style="rounded=0;whiteSpace=wrap;html=1;" vertex="1" parent="1">
          <mxGeometry x="20" y="430" width="780" height="60" as="geometry" />
        </mxCell>
        <mxCell id="kDgOQdKx38EdroFYzAoS-7" value="" style="shape=mxgraph.signs.transportation.bicycle_1;html=1;pointerEvents=1;fillColor=#000000;strokeColor=none;verticalLabelPosition=bottom;verticalAlign=top;align=center;" vertex="1" parent="1">
          <mxGeometry x="30" y="400" width="99" height="62" as="geometry" />
        </mxCell>
        <mxCell id="kDgOQdKx38EdroFYzAoS-8" value="" style="shape=mxgraph.signs.transportation.bicycle_1;html=1;pointerEvents=1;fillColor=#000000;strokeColor=none;verticalLabelPosition=bottom;verticalAlign=top;align=center;" vertex="1" parent="1">
          <mxGeometry x="40" y="410" width="99" height="62" as="geometry" />
        </mxCell>
        <mxCell id="kDgOQdKx38EdroFYzAoS-9" value="" style="shape=mxgraph.signs.transportation.bicycle_1;html=1;pointerEvents=1;fillColor=#000000;strokeColor=none;verticalLabelPosition=bottom;verticalAlign=top;align=center;" vertex="1" parent="1">
          <mxGeometry x="50" y="420" width="99" height="62" as="geometry" />
        </mxCell>
        <mxCell id="kDgOQdKx38EdroFYzAoS-10" value="" style="shape=mxgraph.signs.transportation.bicycle_1;html=1;pointerEvents=1;fillColor=#000000;strokeColor=none;verticalLabelPosition=bottom;verticalAlign=top;align=center;" vertex="1" parent="1">
          <mxGeometry x="60" y="430" width="99" height="62" as="geometry" />
        </mxCell>
        <mxCell id="kDgOQdKx38EdroFYzAoS-11" value="" style="shape=mxgraph.signs.transportation.bicycle_1;html=1;pointerEvents=1;fillColor=#000000;strokeColor=none;verticalLabelPosition=bottom;verticalAlign=top;align=center;" vertex="1" parent="1">
          <mxGeometry x="121" y="428" width="99" height="62" as="geometry" />
        </mxCell>
        <mxCell id="kDgOQdKx38EdroFYzAoS-12" value="" style="shape=mxgraph.signs.transportation.bicycle_1;html=1;pointerEvents=1;fillColor=#000000;strokeColor=none;verticalLabelPosition=bottom;verticalAlign=top;align=center;" vertex="1" parent="1">
          <mxGeometry x="159" y="440" width="99" height="62" as="geometry" />
        </mxCell>
        <mxCell id="kDgOQdKx38EdroFYzAoS-13" value="" style="shape=mxgraph.signs.transportation.bicycle_1;html=1;pointerEvents=1;fillColor=#000000;strokeColor=none;verticalLabelPosition=bottom;verticalAlign=top;align=center;" vertex="1" parent="1">
          <mxGeometry x="139" y="450" width="99" height="62" as="geometry" />
        </mxCell>
        <mxCell id="kDgOQdKx38EdroFYzAoS-14" value="" style="shape=mxgraph.signs.transportation.bicycle_1;html=1;pointerEvents=1;fillColor=#000000;strokeColor=none;verticalLabelPosition=bottom;verticalAlign=top;align=center;" vertex="1" parent="1">
          <mxGeometry x="250" y="410" width="99" height="62" as="geometry" />
        </mxCell>
        <mxCell id="kDgOQdKx38EdroFYzAoS-15" value="" style="shape=mxgraph.signs.transportation.bicycle_1;html=1;pointerEvents=1;fillColor=#000000;strokeColor=none;verticalLabelPosition=bottom;verticalAlign=top;align=center;" vertex="1" parent="1">
          <mxGeometry x="260" y="420" width="99" height="62" as="geometry" />
        </mxCell>
        <mxCell id="kDgOQdKx38EdroFYzAoS-16" value="" style="shape=mxgraph.signs.transportation.bicycle_1;html=1;pointerEvents=1;fillColor=#000000;strokeColor=none;verticalLabelPosition=bottom;verticalAlign=top;align=center;" vertex="1" parent="1">
          <mxGeometry x="270" y="430" width="99" height="62" as="geometry" />
        </mxCell>
        <mxCell id="kDgOQdKx38EdroFYzAoS-17" value="" style="shape=mxgraph.signs.transportation.bicycle_1;html=1;pointerEvents=1;fillColor=#000000;strokeColor=none;verticalLabelPosition=bottom;verticalAlign=top;align=center;" vertex="1" parent="1">
          <mxGeometry x="236" y="410" width="99" height="62" as="geometry" />
        </mxCell>
        <mxCell id="kDgOQdKx38EdroFYzAoS-18" value="" style="shape=mxgraph.signs.transportation.bicycle_1;html=1;pointerEvents=1;fillColor=#000000;strokeColor=none;verticalLabelPosition=bottom;verticalAlign=top;align=center;" vertex="1" parent="1">
          <mxGeometry x="335" y="428" width="99" height="62" as="geometry" />
        </mxCell>
        <mxCell id="kDgOQdKx38EdroFYzAoS-19" value="" style="shape=mxgraph.signs.transportation.bicycle_1;html=1;pointerEvents=1;fillColor=#000000;strokeColor=none;verticalLabelPosition=bottom;verticalAlign=top;align=center;" vertex="1" parent="1">
          <mxGeometry x="350" y="440" width="99" height="62" as="geometry" />
        </mxCell>
        <mxCell id="kDgOQdKx38EdroFYzAoS-20" value="" style="shape=mxgraph.signs.transportation.bicycle_1;html=1;pointerEvents=1;fillColor=#000000;strokeColor=none;verticalLabelPosition=bottom;verticalAlign=top;align=center;" vertex="1" parent="1">
          <mxGeometry x="414" y="410" width="99" height="62" as="geometry" />
        </mxCell>
        <mxCell id="kDgOQdKx38EdroFYzAoS-23" value="" style="shape=mxgraph.signs.transportation.bicycle_1;html=1;pointerEvents=1;fillColor=#000000;strokeColor=none;verticalLabelPosition=bottom;verticalAlign=top;align=center;" vertex="1" parent="1">
          <mxGeometry x="424" y="420" width="99" height="62" as="geometry" />
        </mxCell>
        <mxCell id="kDgOQdKx38EdroFYzAoS-24" value="" style="shape=mxgraph.signs.transportation.bicycle_1;html=1;pointerEvents=1;fillColor=#000000;strokeColor=none;verticalLabelPosition=bottom;verticalAlign=top;align=center;" vertex="1" parent="1">
          <mxGeometry x="434" y="430" width="99" height="62" as="geometry" />
        </mxCell>
        <mxCell id="kDgOQdKx38EdroFYzAoS-25" value="" style="shape=mxgraph.signs.transportation.bicycle_1;html=1;pointerEvents=1;fillColor=#000000;strokeColor=none;verticalLabelPosition=bottom;verticalAlign=top;align=center;" vertex="1" parent="1">
          <mxGeometry x="460" y="410" width="99" height="62" as="geometry" />
        </mxCell>
        <mxCell id="kDgOQdKx38EdroFYzAoS-26" value="" style="shape=mxgraph.signs.transportation.bicycle_1;html=1;pointerEvents=1;fillColor=#000000;strokeColor=none;verticalLabelPosition=bottom;verticalAlign=top;align=center;" vertex="1" parent="1">
          <mxGeometry x="501" y="400" width="99" height="62" as="geometry" />
        </mxCell>
        <mxCell id="kDgOQdKx38EdroFYzAoS-27" value="" style="shape=mxgraph.signs.transportation.bicycle_1;html=1;pointerEvents=1;fillColor=#000000;strokeColor=none;verticalLabelPosition=bottom;verticalAlign=top;align=center;" vertex="1" parent="1">
          <mxGeometry x="551" y="440" width="99" height="62" as="geometry" />
        </mxCell>
        <mxCell id="kDgOQdKx38EdroFYzAoS-28" value="" style="shape=mxgraph.signs.transportation.bicycle_1;html=1;pointerEvents=1;fillColor=#000000;strokeColor=none;verticalLabelPosition=bottom;verticalAlign=top;align=center;" vertex="1" parent="1">
          <mxGeometry x="600" y="400" width="99" height="62" as="geometry" />
        </mxCell>
        <mxCell id="kDgOQdKx38EdroFYzAoS-29" value="" style="shape=mxgraph.signs.transportation.bicycle_1;html=1;pointerEvents=1;fillColor=#000000;strokeColor=none;verticalLabelPosition=bottom;verticalAlign=top;align=center;" vertex="1" parent="1">
          <mxGeometry x="610" y="410" width="99" height="62" as="geometry" />
        </mxCell>
        <mxCell id="kDgOQdKx38EdroFYzAoS-30" value="" style="shape=mxgraph.signs.transportation.bicycle_1;html=1;pointerEvents=1;fillColor=#000000;strokeColor=none;verticalLabelPosition=bottom;verticalAlign=top;align=center;" vertex="1" parent="1">
          <mxGeometry x="620" y="420" width="99" height="62" as="geometry" />
        </mxCell>
        <mxCell id="kDgOQdKx38EdroFYzAoS-31" value="" style="shape=mxgraph.signs.transportation.bicycle_1;html=1;pointerEvents=1;fillColor=#000000;strokeColor=none;verticalLabelPosition=bottom;verticalAlign=top;align=center;" vertex="1" parent="1">
          <mxGeometry x="630" y="430" width="99" height="62" as="geometry" />
        </mxCell>
        <mxCell id="kDgOQdKx38EdroFYzAoS-32" value="" style="shape=mxgraph.signs.transportation.bicycle_1;html=1;pointerEvents=1;fillColor=#000000;strokeColor=none;verticalLabelPosition=bottom;verticalAlign=top;align=center;" vertex="1" parent="1">
          <mxGeometry x="640" y="440" width="99" height="62" as="geometry" />
        </mxCell>
        <mxCell id="kDgOQdKx38EdroFYzAoS-33" value="" style="shape=mxgraph.signs.transportation.bicycle_1;html=1;pointerEvents=1;fillColor=#000000;strokeColor=none;verticalLabelPosition=bottom;verticalAlign=top;align=center;" vertex="1" parent="1">
          <mxGeometry x="660" y="400" width="99" height="62" as="geometry" />
        </mxCell>
        <mxCell id="kDgOQdKx38EdroFYzAoS-34" value="" style="shape=mxgraph.signs.transportation.bicycle_1;html=1;pointerEvents=1;fillColor=#000000;strokeColor=none;verticalLabelPosition=bottom;verticalAlign=top;align=center;" vertex="1" parent="1">
          <mxGeometry x="701" y="400" width="99" height="62" as="geometry" />
        </mxCell>
      </root>
    </mxGraphModel>
  </diagram>
</mxfile>
